<svg version="1" xmlns="http://www.w3.org/2000/svg" width="2845.333" height="2845.333" viewBox="0 0 2134.000000 2134.000000"><path d="M1017 1C862.8 8.9 719 46.8 584.5 115.1c-189.4 96.1-346.9 247.6-450.4 433.2C68 666.8 24.5 800.3 8 935 2.2 982.8.5 1012.3.5 1066.5c.1 56.5 1.7 85 8.1 135.5 35.7 285 186.3 543.8 417.9 718C573.1 2030.2 743 2099.6 927 2124.4c73.1 9.9 157.7 11.7 233.5 5 177.9-15.6 349-75.7 497-174.5 256.6-171.4 426.4-442.9 466.4-745.9 6.8-51.3 8.6-81.1 8.6-142.5 0-53.9-.6-67.6-4.6-107.5-21.1-211.6-105.2-411.6-242-575.5-40-47.9-89.2-97-136.9-136.7-163.2-135.9-361.8-219.5-573-241.3-44-4.5-117.5-6.6-159-4.5zm341 512.5V609h-289v314h220v194h-220v378h292v189H789V418h569v95.5z"/></svg>